#!OML:ASF H:\MichaelJackson\Top Level 1\Subject 1\Session 1\male.ASF
:FULLY-SPECIFIED
:DEGREES
144
root 22.4686 16.8449 2.42688 10.252 21.353 -8.92219
lowerback 3.42676 4.70896 -1.16072
upperback 0.0363189 6.17881 -2.67328
thorax -1.70242 3.0852 -2.38928
lowerneck -7.61663 0.835487 3.55419
upperneck -1.78439 0.842156 0.64726
head 0.724194 0.42722 -0.367023
rclavicle 1.66979e-014 -1.43125e-014
rhumerus -50.8282 -19.9038 -77.5323
rradius 54.016
rwrist -10.2549
rhand -33.1893 -31.397
rfingers 7.12502
rthumb -6.39699 -61.2804
lclavicle 1.66979e-014 -1.43125e-014
lhumerus -43.3845 -6.32076 88.1532
lradius 61.3846
lwrist 27.3652
lhand -26.1963 5.68099
lfingers 7.12502
lthumb 0.356115 35.6604
rfemur -26.5371 -11.5197 27.1181
rtibia 69.4593
rfoot 26.1983 14.2168
rtoes 12.5304
lfemur -43.6113 14.9823 -24.0925
ltibia 33.486
lfoot -7.10382 7.74664
ltoes 28.9618
145
root 22.4884 16.8637 2.56035 10.307 22.6725 -8.75445
lowerback 3.86435 4.68482 -1.22806
upperback 0.158436 6.13267 -2.75414
thorax -1.82063 3.062 -2.46675
lowerneck -7.66609 0.604206 3.40668
upperneck -2.12449 0.552794 0.706362
head 0.620139 0.280537 -0.331866
rclavicle -8.50798e-014 -9.54166e-015
rhumerus -51.0052 -19.7379 -77.8716
rradius 52.7682
rwrist -9.10811
rhand -34.2108 -34.6802
rfingers 7.12502
rthumb -7.38303 -64.5314
lclavicle -8.50798e-014 -9.54166e-015
lhumerus -43.2913 -6.78633 88.3413
lradius 63.1003
lwrist 28.3159
lhand -26.1508 5.7214
lfingers 7.12502
lthumb 0.400051 35.7008
rfemur -28.7421 -10.2507 26.8682
rtibia 71.2935
rfoot 25.4287 15.2602
rtoes 12.852
lfemur -43.143 14.4019 -24.1409
ltibia 33.409
lfoot -7.53894 7.04756
ltoes 28.549
146
root 22.5082 16.8807 2.69395 10.3812 24.0595 -8.57468
lowerback 4.27107 4.62505 -1.25531
upperback 0.278651 6.04137 -2.83558
thorax -1.92072 3.01619 -2.56117
lowerneck -7.7076 0.38412 3.27008
upperneck -2.43308 0.277383 0.766355
head 0.525813 0.14138 -0.297615
rclavicle -1.19271e-015 6.36111e-015
rhumerus -51.1484 -19.3803 -78.3206
rradius 51.5288
rwrist -7.69128
rhand -34.4835 -37.3308
rfingers 7.12502
rthumb -7.64625 -67.1726
lclavicle -1.19271e-015 6.36111e-015
lhumerus -43.2307 -7.26121 88.5351
lradius 64.7557
lwrist 29.0326
lhand -25.9399 5.70605
lfingers 7.12502
lthumb 0.603781 35.6849
rfemur -30.9216 -8.96789 26.53
rtibia 72.9126
rfoot 24.1938 15.9703
rtoes 12.5083
lfemur -42.6707 13.6491 -24.1347
ltibia 33.3349
lfoot -7.98244 6.46736
ltoes 28.1152
147
root 22.5286 16.8967 2.82854 10.4836 25.516 -8.36339
lowerback 4.63685 4.54641 -1.27172
upperback 0.393491 5.92649 -2.91897
thorax -2.00308 2.95878 -2.65801
lowerneck -7.74627 0.159562 3.14895
upperneck -2.6912 -0.00605221 0.8291
head 0.447576 -0.00111536 -0.265151
rclavicle -4.01545e-014 -4.77083e-015
rhumerus -51.3073 -18.8664 -78.8348
rradius 50.3289
rwrist -6.0062
rhand -34.079 -39.0839
rfingers 7.12502
rthumb -7.25578 -68.9395
lclavicle -4.01545e-014 -4.77083e-015
lhumerus -43.1939 -7.78648 88.7604
lradius 66.3194
lwrist 29.5209
lhand -25.6698 5.65203
lfingers 7.12502
lthumb 0.864682 35.63
rfemur -33.079 -7.69566 26.0738
rtibia 74.3226
rfoot 22.7655 16.229
rtoes 11.8419
lfemur -42.192 12.7329 -24.1027
ltibia 33.2564
lfoot -8.42306 5.99157
ltoes 27.6503
148
root 22.5491 16.9113 2.96427 10.6217 27.0622 -8.11954
lowerback 4.96183 4.44644 -1.27346
upperback 0.499547 5.78503 -3.00842
thorax -2.07081 2.88826 -2.76348
lowerneck -7.77291 -0.0732803 3.04988
upperneck -2.9087 -0.302627 0.897103
head 0.380603 -0.149788 -0.234921
rclavicle -2.66371e-014 4.29375e-014
rhumerus -51.5085 -18.2228 -79.3992
rradius 49.1988
rwrist -4.11909
rhand -33.109 -39.7481
rfingers 7.12502
rthumb -6.3194 -69.6338
lclavicle -2.66371e-014 4.29375e-014
lhumerus -43.1772 -8.37076 89.0062
lradius 67.7785
lwrist 29.8034
lhand -25.3665 5.55569
lfingers 7.12502
lthumb 1.15758 35.5323
rfemur -35.2185 -6.48161 25.5022
rtibia 75.5237
rfoot 21.3948 16.0206
rtoes 11.2716
lfemur -41.7209 11.6586 -24.0536
ltibia 33.1724
lfoot -8.84552 5.59101
ltoes 27.1712
149
root 22.5697 16.9243 3.10095 10.8001 28.701 -7.83211
lowerback 5.25144 4.32595 -1.27474
upperback 0.598195 5.61736 -3.09934
thorax -2.12763 2.8049 -2.86545
lowerneck -7.75288 -0.321303 3.00205
upperneck -3.13631 -0.621788 0.926162
head 0.303091 -0.31095 -0.225148
rclavicle 1.70955e-014 -6.52014e-014
rhumerus -51.7686 -17.5082 -79.9928
rradius 48.1568
rwrist -2.08813
rhand -31.7685 -39.2179
rfingers 7.12502
rthumb -5.02518 -69.1384
lclavicle 1.70955e-014 -6.52014e-014
lhumerus -43.1656 -8.99624 89.2786
lradius 69.1084
lwrist 29.8968
lhand -25.0579 5.39177
lfingers 7.12502
lthumb 1.45564 35.3666
rfemur -37.3329 -5.35075 24.8028
rtibia 76.513
rfoot 20.2645 15.3769
rtoes 11.1436
lfemur -41.2646 10.4524 -24.009
ltibia 33.0848
lfoot -9.2383 5.23423
ltoes 26.6965
150
root 22.5903 16.9359 3.23919 11.0005 30.3941 -7.51861
lowerback 5.51747 4.20258 -1.26973
upperback 0.688557 5.44694 -3.19041
thorax -2.17984 2.72029 -2.96839
lowerneck -7.67805 -0.589865 3.00821
upperneck -3.3828 -0.970586 0.920753
head 0.210589 -0.488296 -0.234621
rclavicle 4.05521e-014 -1.27222e-014
rhumerus -52.1054 -16.7516 -80.6038
rradius 47.2196
rwrist -0.0154529
rhand -30.2344 -37.5545
rfingers 7.12502
rthumb -3.54384 -67.5048
lclavicle 4.05521e-014 -1.27222e-014
lhumerus -43.1521 -9.66568 89.5771
lradius 70.2971
lwrist 29.8209
lhand -24.7818 5.20719
lfingers 7.12502
lthumb 1.72232 35.18
rfemur -39.3959 -4.28615 23.9933
rtibia 77.2847
rfoot 19.4361 14.3547
rtoes 11.654
lfemur -40.8177 9.19833 -23.9655
ltibia 33.0018
lfoot -9.60252 4.87631
ltoes 26.2482
